<?xml version="1.0" encoding="UTF-8" standalone="no"?>
<svg
   width="16"
   height="16"
   viewBox="0 0 16 16"
   fill="none"
   version="1.1"
   id="svg3"
   sodipodi:docname="LOD_settings.svg"
   inkscape:version="1.4.3 (0d15f75, 2025-12-25)"
   xmlns:inkscape="http://www.inkscape.org/namespaces/inkscape"
   xmlns:sodipodi="http://sodipodi.sourceforge.net/DTD/sodipodi-0.dtd"
   xmlns="http://www.w3.org/2000/svg"
   xmlns:svg="http://www.w3.org/2000/svg">
  <sodipodi:namedview
     id="namedview1"
     pagecolor="#ffffff"
     bordercolor="#000000"
     borderopacity="0.25"
     inkscape:showpageshadow="2"
     inkscape:pageopacity="0.0"
     inkscape:pagecheckerboard="0"
     inkscape:deskcolor="#d1d1d1"
     inkscape:zoom="37.15625"
     inkscape:cx="5.059714"
     inkscape:cy="8.3027754"
     inkscape:window-width="2560"
     inkscape:window-height="1369"
     inkscape:window-x="2552"
     inkscape:window-y="-8"
     inkscape:window-maximized="1"
     inkscape:current-layer="svg3"
     showguides="true" />
  <defs
     id="defs3" />
  <g
     id="g5">
    <rect
       style="fill:#5fffc8;fill-opacity:1;stroke:#ff5f5f;stroke-width:0;stroke-linejoin:miter;stroke-dasharray:none;stroke-opacity:1"
       id="rect1-3-7-3-00-3"
       width="2.94912"
       height="2.94912"
       x="11.861228"
       y="10.546678" />
    <rect
       style="fill:#5fffc8;fill-opacity:1;stroke:#ff5f5f;stroke-width:0;stroke-linejoin:miter;stroke-dasharray:none;stroke-opacity:1"
       id="rect1-3-7-3-00-3-6"
       width="2.94912"
       height="2.94912"
       x="8.9121075"
       y="10.546678" />
    <rect
       style="fill:#5fffc8;fill-opacity:1;stroke:#ff5f5f;stroke-width:0;stroke-linejoin:miter;stroke-dasharray:none;stroke-opacity:1"
       id="rect1-3-7-3-00-3-61"
       width="2.94912"
       height="2.94912"
       x="8.9121075"
       y="7.597558" />
  </g>
  <g
     id="g6">
    <rect
       style="fill:#ff5f5f;fill-opacity:1;stroke:#ff5f5f;stroke-width:0;stroke-linejoin:miter;stroke-dasharray:none;stroke-opacity:1"
       id="rect1-3-7-3-0"
       width="2"
       height="2"
       x="3.1471825"
       y="4.4432297" />
    <rect
       style="fill:#ff5f5f;fill-opacity:1;stroke:#ff5f5f;stroke-width:0;stroke-linejoin:miter;stroke-dasharray:none;stroke-opacity:1"
       id="rect1-3-7-3-6"
       width="2"
       height="2"
       x="3.1471825"
       y="2.4432297" />
    <rect
       style="fill:#ff5f5f;fill-opacity:1;stroke:#ff5f5f;stroke-width:0;stroke-linejoin:miter;stroke-dasharray:none;stroke-opacity:1"
       id="rect1-3-7-3-4"
       width="2"
       height="2"
       x="1.1471825"
       y="4.4432297" />
    <rect
       style="fill:#ff5f5f;fill-opacity:1;stroke:#ff5f5f;stroke-width:0;stroke-linejoin:miter;stroke-dasharray:none;stroke-opacity:1"
       id="rect1-3-7-3-5"
       width="2"
       height="2"
       x="1.1471825"
       y="2.4432297" />
    <rect
       style="fill:#ff5f5f;fill-opacity:1;stroke:#ff5f5f;stroke-width:0;stroke-linejoin:miter;stroke-dasharray:none;stroke-opacity:1"
       id="rect1-3-7-3-00"
       width="2"
       height="2"
       x="1.1471825"
       y="0.44322959" />
    <rect
       style="fill:#ff5f5f;fill-opacity:1;stroke:#ff5f5f;stroke-width:0;stroke-linejoin:miter;stroke-dasharray:none;stroke-opacity:1"
       id="rect1-3-7-3-3"
       width="2"
       height="2"
       x="5.1471825"
       y="4.4432297" />
  </g>
  <ellipse
     style="fill:#ffffff;fill-opacity:1;stroke:#000000;stroke-width:0;stroke-opacity:1"
     id="path2"
     cx="1.4573355"
     cy="10.976201"
     transform="matrix(0.78827163,-0.61532743,0.61553746,0.78810763,0,0)"
     inkscape:transform-center-x="2.819619"
     inkscape:transform-center-y="-2.7608582"
     rx="1.9972262"
     ry="1.9970932" />
  <ellipse
     style="fill:#c8c8c8;fill-opacity:0;stroke:#ffffff;stroke-width:1.39801;stroke-dasharray:none;stroke-opacity:1"
     id="path2-3"
     cx="1.4573355"
     cy="10.976201"
     transform="matrix(0.78827163,-0.61532743,0.61553746,0.78810763,0,0)"
     inkscape:transform-center-x="2.819619"
     inkscape:transform-center-y="-2.7608582"
     rx="3.9944525"
     ry="3.9941864" />
  <path
     id="path3"
     style="fill:#c8c8c8;fill-opacity:0;stroke:#ffffff;stroke-width:1.39801;stroke-dasharray:none;stroke-opacity:1"
     d="M 3.7321911,5.2322546 A 4.993585,4.9922135 0 0 0 2.984476,7.7160549 L 4.0144471,6.664643 Z M 6.5451486,3.0859327 7.8572067,3.7391959 9.1550308,3.0180575 A 4.993585,4.9922135 0 0 0 6.5451486,3.0859327 Z M 4.1199092,11.045649 a 4.993585,4.9922135 0 0 0 2.1961551,1.531733 L 5.6148201,11.229592 Z M 12.057572,4.9979313 11.836974,6.4962637 12.953711,7.5395121 A 4.993585,4.9922135 0 0 0 12.057572,4.9979313 Z M 10.449714,11.127065 9.8039378,12.51195 a 4.993585,4.9922135 0 0 0 1.2434442,-0.708379 4.993585,4.9922135 0 0 0 0.912152,-0.929759 z"
     inkscape:transform-center-x="2.7875504"
     inkscape:transform-center-y="-2.7741847" />
</svg>
