<?xml version="1.0" encoding="UTF-8" standalone="no"?>
<svg
   width="16"
   height="16"
   viewBox="0 0 16 16"
   fill="none"
   version="1.1"
   id="svg3"
   sodipodi:docname="LOD.svg"
   inkscape:version="1.4.3 (0d15f75, 2025-12-25)"
   xmlns:inkscape="http://www.inkscape.org/namespaces/inkscape"
   xmlns:sodipodi="http://sodipodi.sourceforge.net/DTD/sodipodi-0.dtd"
   xmlns="http://www.w3.org/2000/svg"
   xmlns:svg="http://www.w3.org/2000/svg">
  <sodipodi:namedview
     id="namedview1"
     pagecolor="#ffffff"
     bordercolor="#000000"
     borderopacity="0.25"
     inkscape:showpageshadow="2"
     inkscape:pageopacity="0.0"
     inkscape:pagecheckerboard="0"
     inkscape:deskcolor="#d1d1d1"
     inkscape:zoom="37.15625"
     inkscape:cx="5.059714"
     inkscape:cy="8.3027754"
     inkscape:window-width="2560"
     inkscape:window-height="1369"
     inkscape:window-x="2552"
     inkscape:window-y="-8"
     inkscape:window-maximized="1"
     inkscape:current-layer="svg3" />
  <defs
     id="defs3" />
  <rect
     style="fill:#ff5f5f;fill-opacity:1;stroke:#ff5f5f;stroke-width:0;stroke-linejoin:miter;stroke-dasharray:none;stroke-opacity:1"
     id="rect1-3-7-3-0"
     width="2"
     height="2"
     x="3.1471825"
     y="4.4432297" />
  <rect
     style="fill:#ff5f5f;fill-opacity:1;stroke:#ff5f5f;stroke-width:0;stroke-linejoin:miter;stroke-dasharray:none;stroke-opacity:1"
     id="rect1-3-7-3-6"
     width="2"
     height="2"
     x="3.1471825"
     y="2.4432297" />
  <rect
     style="fill:#ff5f5f;fill-opacity:1;stroke:#ff5f5f;stroke-width:0;stroke-linejoin:miter;stroke-dasharray:none;stroke-opacity:1"
     id="rect1-3-7-3-4"
     width="2"
     height="2"
     x="1.1471825"
     y="4.4432297" />
  <rect
     style="fill:#ff5f5f;fill-opacity:1;stroke:#ff5f5f;stroke-width:0;stroke-linejoin:miter;stroke-dasharray:none;stroke-opacity:1"
     id="rect1-3-7-3-5"
     width="2"
     height="2"
     x="1.1471825"
     y="2.4432297" />
  <rect
     style="fill:#ff5f5f;fill-opacity:1;stroke:#ff5f5f;stroke-width:0;stroke-linejoin:miter;stroke-dasharray:none;stroke-opacity:1"
     id="rect1-3-7-3-00"
     width="2"
     height="2"
     x="1.1471825"
     y="0.44322959" />
  <rect
     style="fill:#5fffc8;fill-opacity:1;stroke:#ff5f5f;stroke-width:0;stroke-linejoin:miter;stroke-dasharray:none;stroke-opacity:1"
     id="rect1-3-7-3-00-3"
     width="2.94912"
     height="2.94912"
     x="11.861228"
     y="10.546678" />
  <rect
     style="fill:#5fffc8;fill-opacity:1;stroke:#ff5f5f;stroke-width:0;stroke-linejoin:miter;stroke-dasharray:none;stroke-opacity:1"
     id="rect1-3-7-3-00-3-6"
     width="2.94912"
     height="2.94912"
     x="8.9121075"
     y="10.546678" />
  <rect
     style="fill:#5fffc8;fill-opacity:1;stroke:#ff5f5f;stroke-width:0;stroke-linejoin:miter;stroke-dasharray:none;stroke-opacity:1"
     id="rect1-3-7-3-00-3-61"
     width="2.94912"
     height="2.94912"
     x="8.9121075"
     y="7.597558" />
  <rect
     style="fill:#ff5f5f;fill-opacity:1;stroke:#ff5f5f;stroke-width:0;stroke-linejoin:miter;stroke-dasharray:none;stroke-opacity:1"
     id="rect1-3-7-3-3"
     width="2"
     height="2"
     x="5.1471825"
     y="4.4432297" />
  <path
     id="path1"
     style="fill:#a8a8a8;fill-opacity:1;stroke:#ff5f5f;stroke-width:0;stroke-linejoin:miter;stroke-dasharray:none;stroke-opacity:1"
     d="M 10.526819,0.54908764 A 5,5 0 0 0 9.8354134,0.58619694 5,5 0 0 0 7.2709604,1.6838532 l 0.84375,0.5546875 a 4,4 0 0 1 1.84375,-0.71875 4,4 0 0 1 4.3007806,2.765625 4,4 0 0 1 0.09375,2.0546875 l 0.896485,0.5898437 A 5,5 0 0 0 15.212366,4.0432282 5,5 0 0 0 10.526819,0.54908764 Z" />
  <path
     id="path1-7"
     style="fill:#a8a8a8;fill-opacity:1;stroke:#ff5f5f;stroke-width:0;stroke-linejoin:miter;stroke-dasharray:none;stroke-opacity:1"
     d="m 4.9335437,15.140991 a 5,5 0 0 0 0.6883627,0.07467 5,5 0 0 0 2.7076922,-0.670576 L 7.5861316,13.861813 A 4,4 0 0 1 5.6507341,14.274426 4,4 0 0 1 1.8511769,10.852619 4,4 0 0 1 2.0893662,8.8096325 L 1.29951,8.0831837 A 5,5 0 0 0 0.87149722,10.938237 5,5 0 0 0 4.9335437,15.140991 Z" />
</svg>
